<svg width="20" height="20" viewBox="0 0 20 20" fill="none" xmlns="http://www.w3.org/2000/svg">
<g clip-path="url(#clip0_812_965)">
<path d="M17.5585 2.38965H2.44569C1.09663 2.38965 0 3.48628 0 4.83534V15.1643C0 16.5134 1.09663 17.61 2.44569 17.61H17.5543C18.9034 17.61 20 16.5134 20 15.1643V4.83947C20.0041 3.49041 18.9075 2.38965 17.5585 2.38965ZM18.8868 15.1643C18.8868 15.8968 18.2909 16.4927 17.5585 16.4927H2.44569C1.71322 16.4927 1.11732 15.8968 1.11732 15.1643V4.83947C1.11732 4.10701 1.71322 3.51111 2.44569 3.51111H17.5543C18.2868 3.51111 18.8827 4.10701 18.8827 4.83947V15.1643H18.8868Z" fill="#8EE901"/>
<path d="M12.6115 9.87145L17.5029 5.48494C17.7305 5.27803 17.7512 4.92628 17.5443 4.69454C17.3374 4.46694 16.9856 4.44624 16.7539 4.65316L10.0086 10.7074L8.69266 9.53211C8.68852 9.52797 8.68438 9.52384 8.68438 9.5197C8.65541 9.49073 8.62645 9.4659 8.59334 9.44107L3.23849 4.64902C3.00675 4.44211 2.655 4.4628 2.44809 4.69454C2.24118 4.92628 2.26187 5.27803 2.49361 5.48494L7.44292 9.90869L2.5143 14.5228C2.29084 14.7339 2.27842 15.0856 2.48947 15.3132C2.6012 15.4291 2.75018 15.4911 2.89916 15.4911C3.03572 15.4911 3.17228 15.4415 3.27987 15.3422L8.28297 10.6618L9.64031 11.8743C9.7479 11.9695 9.88033 12.015 10.0127 12.015C10.1452 12.015 10.2817 11.9654 10.3852 11.8702L11.7798 10.6205L16.7539 15.3463C16.8615 15.4498 17.0022 15.4994 17.1388 15.4994C17.2877 15.4994 17.4326 15.4415 17.5443 15.3256C17.7554 15.1022 17.7471 14.7463 17.5236 14.5352L12.6115 9.87145Z" fill="#8EE901"/>
</g>
<defs>
<clipPath id="clip0_812_965">
<rect width="20" height="20" fill="white"/>
</clipPath>
</defs>
</svg>
